,
Brought to you by  http://www.scenetime.com/signup.php
 
 Hottest scene tracker on the net !!!   
 
No fake torrents from scenebalance 
shame on those who comment fake before downloading my torrents

    seed back for speed


 



...................................NFO:.................................................Rio R5 READNFO XViD-SCRN.avi

   General
      Rio R5 READNFO XViD-SCRN
      Format : AVI
      Format/Info : Audio Video Interleave
      File size : 1.05 GiB
      Duration : 1h 32mn
      Overall bit rate : 1 627 Kbps

   Video #0
      ID : 0
      Format : MPEG-4 Visual
      Format profile : AdvancedSimple@L5
      Format settings, BVOP : Yes
      Format settings, QPel : No
      Format settings, GMC : No warppoints
      Format settings, Matrix : Default (H.263)
      Codec ID : XVID
      Codec ID/Hint : XviD
      Duration : 1h 32mn
      Bit rate : 1 299 Kbps
      Width : 720 pixels
      Height : 304 pixels
      Display aspect ratio : 2.35:1
      Frame rate : 25.000 fps
      Resolution : 24 bits
      Colorimetry : 4:2:0
      Scan type : Progressive
      Bits/(Pixel*Frame) : 0.237
      Stream size : 858 MiB (80%)
      
   Audio #1
      ID : 1
      Format : AC-3
      Format/Info : Audio Coding 3
      Codec ID : 2000
      Duration : 1h 32mn
      Bit rate mode : Constant
      Bit rate : 320 Kbps
      Channel(s) : 2 channels
      Channel positions : L R
      Sampling rate : 48.0 KHz
      Stream size : 211 MiB (20%)
      Alignment : Aligned on interleaves
      Interleave, duration : 64 ms (1.60 video frames)
      Interleave, preload duration : 192 ms